<?xml version="1.0" encoding="UTF-8"?>
<!DOCTYPE svg PUBLIC "-//W3C//DTD SVG 1.1//EN" "http://www.w3.org/Graphics/SVG/1.1/DTD/svg11.dtd">
<!-- Creator: CorelDRAW X7 -->
<svg xmlns="http://www.w3.org/2000/svg" xml:space="preserve" width="38.7938mm" height="39.6961mm" version="1.1" style="shape-rendering:geometricPrecision; text-rendering:geometricPrecision; image-rendering:optimizeQuality; fill-rule:evenodd; clip-rule:evenodd"
viewBox="0 0 1424 1458"
 xmlns:xlink="http://www.w3.org/1999/xlink">
 <defs>
  <style type="text/css">
   <![CDATA[
    .fil0 {fill:white}
   ]]>
  </style>
 </defs>
 <g id="Vrstva_x0020_1">
  <metadata id="CorelCorpID_0Corel-Layer"/>
  <path class="fil0" d="M862 1437l-79 -442c-16,3 -32,4 -49,4l0 449c43,0 86,-4 128,-11z"/>
  <path class="fil0" d="M607 1458l80 -463c-129,-22 -228,-135 -228,-271 0,-136 98,-248 227,-271l-79 -442c-351,62 -607,367 -607,723 0,357 256,662 607,724z"/>
  <path class="fil0" d="M734 449c17,0 33,1 49,4l79 -442c-42,-7 -85,-11 -128,-11l0 449z"/>
  <path class="fil0" d="M830 982l156 422c40,-15 79,-33 116,-55l-228 -388c-14,9 -29,16 -44,21z"/>
  <path class="fil0" d="M913 933l293 343c33,-27 63,-58 91,-90l-350 -287c-10,12 -21,24 -34,34z"/>
  <path class="fil0" d="M975 859l395 222c22,-37 40,-76 54,-116l-430 -150c-5,15 -12,30 -19,44z"/>
  <path class="fil0" d="M994 633l430 -150c-14,-40 -32,-79 -54,-116l-395 222c7,14 14,29 19,44z"/>
  <path class="fil0" d="M947 549l350 -287c-28,-32 -58,-63 -91,-90l-293 343c13,10 24,22 34,34z"/>
  <path class="fil0" d="M874 486l228 -388c-37,-21 -76,-39 -116,-54l-156 422c15,5 30,12 44,20z"/>
 </g>
</svg>
